<svg xmlns="http://www.w3.org/2000/svg" viewBox="0 0 1418 900" font-family="Helvetica Neue, Arial, sans-serif" role="img" aria-label="2026 Men's World Cup knockout bracket, as of July 7 2026">
<rect x="0" y="0" width="1418" height="900" rx="10" fill="#0e0f12"/>
<text x="709.0" y="38" font-size="20" fill="#e8e6e1" text-anchor="middle" font-family="Georgia, serif">2026 Men’s World Cup — Road to the Final</text>
<text x="109.0" y="72" font-size="12.5" fill="#d0a44c" text-anchor="middle" font-weight="bold" letter-spacing="1.5">ROUND OF 16</text>
<text x="109.0" y="90" font-size="10.5" fill="#9a978f" text-anchor="middle" font-style="italic">July 4–6</text>
<text x="309.0" y="72" font-size="12.5" fill="#d0a44c" text-anchor="middle" font-weight="bold" letter-spacing="1.5">QUARTERFINALS</text>
<text x="309.0" y="90" font-size="10.5" fill="#9a978f" text-anchor="middle" font-style="italic">July 9–10</text>
<text x="509.0" y="72" font-size="12.5" fill="#d0a44c" text-anchor="middle" font-weight="bold" letter-spacing="1.5">SEMIFINAL</text>
<text x="509.0" y="90" font-size="10.5" fill="#9a978f" text-anchor="middle" font-style="italic">July 14</text>
<text x="709.0" y="72" font-size="12.5" fill="#d0a44c" text-anchor="middle" font-weight="bold" letter-spacing="1.5">FINAL</text>
<text x="709.0" y="90" font-size="10.5" fill="#9a978f" text-anchor="middle" font-style="italic">July 19</text>
<text x="909.0" y="72" font-size="12.5" fill="#d0a44c" text-anchor="middle" font-weight="bold" letter-spacing="1.5">SEMIFINAL</text>
<text x="909.0" y="90" font-size="10.5" fill="#9a978f" text-anchor="middle" font-style="italic">July 15</text>
<text x="1109.0" y="72" font-size="12.5" fill="#d0a44c" text-anchor="middle" font-weight="bold" letter-spacing="1.5">QUARTERFINALS</text>
<text x="1109.0" y="90" font-size="10.5" fill="#9a978f" text-anchor="middle" font-style="italic">July 11</text>
<text x="1309.0" y="72" font-size="12.5" fill="#d0a44c" text-anchor="middle" font-weight="bold" letter-spacing="1.5">ROUND OF 16</text>
<text x="1309.0" y="90" font-size="10.5" fill="#9a978f" text-anchor="middle" font-style="italic">July 5–7</text>
<path d="M198,217.0 H209.0 V302.0 H220" fill="none" stroke="#3a3b42" stroke-width="1"/>
<path d="M198,387.0 H209.0 V302.0" fill="none" stroke="#3a3b42" stroke-width="1"/>
<path d="M198,557.0 H209.0 V642.0 H220" fill="none" stroke="#3a3b42" stroke-width="1"/>
<path d="M198,727.0 H209.0 V642.0" fill="none" stroke="#3a3b42" stroke-width="1"/>
<path d="M398,302.0 H409.0 V472.0 H420" fill="none" stroke="#3a3b42" stroke-width="1"/>
<path d="M398,642.0 H409.0 V472.0" fill="none" stroke="#3a3b42" stroke-width="1"/>
<path d="M1220,217.0 H1209.0 V302.0 H1198" fill="none" stroke="#3a3b42" stroke-width="1"/>
<path d="M1220,387.0 H1209.0 V302.0" fill="none" stroke="#3a3b42" stroke-width="1"/>
<path d="M1220,557.0 H1209.0 V642.0 H1198" fill="none" stroke="#3a3b42" stroke-width="1"/>
<path d="M1220,727.0 H1209.0 V642.0" fill="none" stroke="#3a3b42" stroke-width="1"/>
<path d="M1020,302.0 H1009.0 V472.0 H998" fill="none" stroke="#3a3b42" stroke-width="1"/>
<path d="M1020,642.0 H1009.0 V472.0" fill="none" stroke="#3a3b42" stroke-width="1"/>
<path d="M598,472.0 H620" fill="none" stroke="#3a3b42" stroke-width="1"/>
<path d="M820,472.0 H798" fill="none" stroke="#3a3b42" stroke-width="1"/>
<text x="20" y="182" font-size="10" fill="#9a978f">M89 · Jul 4 · Houston</text>
<rect x="20" y="188" width="178" height="58" rx="7" fill="#16171c" stroke="#26272e" stroke-width="1"/>
<line x1="20" y1="217.0" x2="198" y2="217.0" stroke="#26272e" stroke-width="1"/>
<text x="32" y="210" font-size="13" fill="#9a978f" font-weight="normal">Canada</text>
<text x="186" y="210" font-size="13" fill="#9a978f" font-weight="normal" text-anchor="end">0</text>
<text x="32" y="238" font-size="13" fill="#d0a44c" font-weight="bold">Morocco</text>
<text x="186" y="238" font-size="13" fill="#d0a44c" font-weight="bold" text-anchor="end">3</text>
<text x="20" y="352" font-size="10" fill="#9a978f">M90 · Jul 4 · Philadelphia</text>
<rect x="20" y="358" width="178" height="58" rx="7" fill="#16171c" stroke="#26272e" stroke-width="1"/>
<line x1="20" y1="387.0" x2="198" y2="387.0" stroke="#26272e" stroke-width="1"/>
<text x="32" y="380" font-size="13" fill="#9a978f" font-weight="normal">Paraguay</text>
<text x="186" y="380" font-size="13" fill="#9a978f" font-weight="normal" text-anchor="end">0</text>
<text x="32" y="408" font-size="13" fill="#d0a44c" font-weight="bold">France</text>
<text x="186" y="408" font-size="13" fill="#d0a44c" font-weight="bold" text-anchor="end">1</text>
<text x="20" y="522" font-size="10" fill="#9a978f">M93 · Jul 6 · Dallas</text>
<rect x="20" y="528" width="178" height="58" rx="7" fill="#16171c" stroke="#26272e" stroke-width="1"/>
<line x1="20" y1="557.0" x2="198" y2="557.0" stroke="#26272e" stroke-width="1"/>
<text x="32" y="550" font-size="13" fill="#9a978f" font-weight="normal">Portugal</text>
<text x="186" y="550" font-size="13" fill="#9a978f" font-weight="normal" text-anchor="end">0</text>
<text x="32" y="578" font-size="13" fill="#d0a44c" font-weight="bold">Spain</text>
<text x="186" y="578" font-size="13" fill="#d0a44c" font-weight="bold" text-anchor="end">1</text>
<text x="20" y="692" font-size="10" fill="#9a978f">M94 · Jul 6 · Seattle</text>
<rect x="20" y="698" width="178" height="58" rx="7" fill="#16171c" stroke="#26272e" stroke-width="1"/>
<line x1="20" y1="727.0" x2="198" y2="727.0" stroke="#26272e" stroke-width="1"/>
<text x="32" y="720" font-size="13" fill="#9a978f" font-weight="normal">USA</text>
<text x="186" y="720" font-size="13" fill="#9a978f" font-weight="normal" text-anchor="end">1</text>
<text x="32" y="748" font-size="13" fill="#d0a44c" font-weight="bold">Belgium</text>
<text x="186" y="748" font-size="13" fill="#d0a44c" font-weight="bold" text-anchor="end">4</text>
<text x="220" y="267" font-size="10" fill="#9a978f">M97 · Jul 9, 4 PM · Boston</text>
<rect x="220" y="273" width="178" height="58" rx="7" fill="#16171c" stroke="#26272e" stroke-width="1"/>
<line x1="220" y1="302.0" x2="398" y2="302.0" stroke="#26272e" stroke-width="1"/>
<text x="232" y="295" font-size="13" fill="#e8e6e1" font-weight="normal">Morocco</text>
<text x="232" y="323" font-size="13" fill="#e8e6e1" font-weight="normal">France</text>
<text x="220" y="607" font-size="10" fill="#9a978f">M98 · Jul 10, 3 PM · Los Angeles</text>
<rect x="220" y="613" width="178" height="58" rx="7" fill="#16171c" stroke="#26272e" stroke-width="1"/>
<line x1="220" y1="642.0" x2="398" y2="642.0" stroke="#26272e" stroke-width="1"/>
<text x="232" y="635" font-size="13" fill="#e8e6e1" font-weight="normal">Spain</text>
<text x="232" y="663" font-size="13" fill="#e8e6e1" font-weight="normal">Belgium</text>
<text x="420" y="437" font-size="10" fill="#9a978f">M101 · Jul 14, 3 PM · Dallas</text>
<rect x="420" y="443" width="178" height="58" rx="7" fill="#16171c" stroke="#26272e" stroke-width="1"/>
<line x1="420" y1="472.0" x2="598" y2="472.0" stroke="#26272e" stroke-width="1"/>
<text x="432" y="465" font-size="13" fill="#9a978f" font-weight="normal" font-style="italic">Winner M97</text>
<text x="432" y="493" font-size="13" fill="#9a978f" font-weight="normal" font-style="italic">Winner M98</text>
<text x="620" y="437" font-size="10" fill="#9a978f">M104 · Jul 19, 3 PM · NY/NJ</text>
<rect x="620" y="443" width="178" height="58" rx="7" fill="#16171c" stroke="#d0a44c" stroke-width="1.6"/>
<line x1="620" y1="472.0" x2="798" y2="472.0" stroke="#26272e" stroke-width="1"/>
<text x="709.0" y="422" font-size="11" fill="#d0a44c" text-anchor="middle" font-weight="bold" letter-spacing="2">FINAL</text>
<text x="632" y="465" font-size="13" fill="#9a978f" font-weight="normal" font-style="italic">Winner M101</text>
<text x="632" y="493" font-size="13" fill="#9a978f" font-weight="normal" font-style="italic">Winner M102</text>
<text x="820" y="437" font-size="10" fill="#9a978f">M102 · Jul 15, 4 PM · Atlanta</text>
<rect x="820" y="443" width="178" height="58" rx="7" fill="#16171c" stroke="#26272e" stroke-width="1"/>
<line x1="820" y1="472.0" x2="998" y2="472.0" stroke="#26272e" stroke-width="1"/>
<text x="832" y="465" font-size="13" fill="#9a978f" font-weight="normal" font-style="italic">Winner M99</text>
<text x="832" y="493" font-size="13" fill="#9a978f" font-weight="normal" font-style="italic">Winner M100</text>
<text x="1020" y="267" font-size="10" fill="#9a978f">M99 · Jul 11, 5 PM · Miami</text>
<rect x="1020" y="273" width="178" height="58" rx="7" fill="#16171c" stroke="#26272e" stroke-width="1"/>
<line x1="1020" y1="302.0" x2="1198" y2="302.0" stroke="#26272e" stroke-width="1"/>
<text x="1032" y="295" font-size="13" fill="#e8e6e1" font-weight="normal">Norway</text>
<text x="1032" y="323" font-size="13" fill="#e8e6e1" font-weight="normal">England</text>
<text x="1020" y="607" font-size="10" fill="#9a978f">M100 · Jul 11, 9 PM · Kansas City</text>
<rect x="1020" y="613" width="178" height="58" rx="7" fill="#16171c" stroke="#26272e" stroke-width="1"/>
<line x1="1020" y1="642.0" x2="1198" y2="642.0" stroke="#26272e" stroke-width="1"/>
<text x="1032" y="635" font-size="13" fill="#e8e6e1" font-weight="normal">Argentina</text>
<text x="1032" y="663" font-size="13" fill="#9a978f" font-weight="normal" font-style="italic">Winner M96</text>
<text x="1220" y="182" font-size="10" fill="#9a978f">M91 · Jul 5 · NY/NJ</text>
<rect x="1220" y="188" width="178" height="58" rx="7" fill="#16171c" stroke="#26272e" stroke-width="1"/>
<line x1="1220" y1="217.0" x2="1398" y2="217.0" stroke="#26272e" stroke-width="1"/>
<text x="1232" y="210" font-size="13" fill="#9a978f" font-weight="normal">Brazil</text>
<text x="1386" y="210" font-size="13" fill="#9a978f" font-weight="normal" text-anchor="end">1</text>
<text x="1232" y="238" font-size="13" fill="#d0a44c" font-weight="bold">Norway</text>
<text x="1386" y="238" font-size="13" fill="#d0a44c" font-weight="bold" text-anchor="end">2</text>
<text x="1220" y="352" font-size="10" fill="#9a978f">M92 · Jul 5 · Mexico City</text>
<rect x="1220" y="358" width="178" height="58" rx="7" fill="#16171c" stroke="#26272e" stroke-width="1"/>
<line x1="1220" y1="387.0" x2="1398" y2="387.0" stroke="#26272e" stroke-width="1"/>
<text x="1232" y="380" font-size="13" fill="#9a978f" font-weight="normal">Mexico</text>
<text x="1386" y="380" font-size="13" fill="#9a978f" font-weight="normal" text-anchor="end">2</text>
<text x="1232" y="408" font-size="13" fill="#d0a44c" font-weight="bold">England</text>
<text x="1386" y="408" font-size="13" fill="#d0a44c" font-weight="bold" text-anchor="end">3</text>
<text x="1220" y="522" font-size="10" fill="#9a978f">M95 · Jul 7 · Atlanta</text>
<rect x="1220" y="528" width="178" height="58" rx="7" fill="#16171c" stroke="#26272e" stroke-width="1"/>
<line x1="1220" y1="557.0" x2="1398" y2="557.0" stroke="#26272e" stroke-width="1"/>
<text x="1232" y="550" font-size="13" fill="#9a978f" font-weight="normal">Egypt</text>
<text x="1386" y="550" font-size="13" fill="#9a978f" font-weight="normal" text-anchor="end">2</text>
<text x="1232" y="578" font-size="13" fill="#d0a44c" font-weight="bold">Argentina</text>
<text x="1386" y="578" font-size="13" fill="#d0a44c" font-weight="bold" text-anchor="end">3</text>
<text x="1220" y="692" font-size="10" fill="#9a978f">M96 · Jul 7, 4 PM · Toronto</text>
<rect x="1220" y="698" width="178" height="58" rx="7" fill="#16171c" stroke="#26272e" stroke-width="1"/>
<line x1="1220" y1="727.0" x2="1398" y2="727.0" stroke="#26272e" stroke-width="1"/>
<text x="1232" y="720" font-size="13" fill="#e8e6e1" font-weight="normal">Switzerland</text>
<text x="1232" y="748" font-size="13" fill="#e8e6e1" font-weight="normal">Colombia</text>
<text x="620" y="685" font-size="10" fill="#9a978f">M103 · Jul 18, 4 PM · Miami</text>
<rect x="620" y="691" width="178" height="58" rx="7" fill="#16171c" stroke="#26272e" stroke-width="1"/>
<line x1="620" y1="720.0" x2="798" y2="720.0" stroke="#26272e" stroke-width="1"/>
<text x="709.0" y="670" font-size="10" fill="#d0a44c" text-anchor="middle" letter-spacing="1.5">BRONZE MATCH</text>
<text x="632" y="713" font-size="13" fill="#9a978f" font-weight="normal" font-style="italic">Loser M101</text>
<text x="632" y="741" font-size="13" fill="#9a978f" font-weight="normal" font-style="italic">Loser M102</text>
</svg>